<mxfile host="app.diagrams.net" agent="Mozilla/5.0 (Windows NT 10.0; Win64; x64; rv:132.0) Gecko/20100101 Firefox/132.0" version="24.9.0">
  <diagram name="Page-1" id="GlgAy-MpnA0aDqoT_prS">
    <mxGraphModel dx="1594" dy="758" grid="1" gridSize="10" guides="1" tooltips="1" connect="1" arrows="1" fold="1" page="1" pageScale="1" pageWidth="850" pageHeight="1100" math="0" shadow="0">
      <root>
        <mxCell id="0" />
        <mxCell id="1" parent="0" />
        <mxCell id="q-G7PGfzLxb9l5Q9Doxs-19" value="Receiver" style="rounded=0;whiteSpace=wrap;html=1;" parent="1" vertex="1">
          <mxGeometry x="40" y="40" width="120" height="60" as="geometry" />
        </mxCell>
        <mxCell id="q-G7PGfzLxb9l5Q9Doxs-20" value="Planner" style="rounded=0;whiteSpace=wrap;html=1;" parent="1" vertex="1">
          <mxGeometry x="280" y="40" width="120" height="60" as="geometry" />
        </mxCell>
        <mxCell id="q-G7PGfzLxb9l5Q9Doxs-26" value="" style="rounded=1;whiteSpace=wrap;html=1;" parent="1" vertex="1">
          <mxGeometry x="80" y="160" width="40" height="1360" as="geometry" />
        </mxCell>
        <mxCell id="q-G7PGfzLxb9l5Q9Doxs-30" value="" style="rounded=1;whiteSpace=wrap;html=1;" parent="1" vertex="1">
          <mxGeometry x="320" y="160" width="40" height="460" as="geometry" />
        </mxCell>
        <mxCell id="q-G7PGfzLxb9l5Q9Doxs-31" value="" style="endArrow=classic;html=1;rounded=0;exitX=1.024;exitY=0.136;exitDx=0;exitDy=0;exitPerimeter=0;" parent="1" edge="1">
          <mxGeometry width="50" height="50" relative="1" as="geometry">
            <mxPoint x="120.96000000000004" y="198.07999999999993" as="sourcePoint" />
            <mxPoint x="319" y="200" as="targetPoint" />
          </mxGeometry>
        </mxCell>
        <mxCell id="q-G7PGfzLxb9l5Q9Doxs-32" value="SpheroConnection" style="edgeLabel;html=1;align=center;verticalAlign=middle;resizable=0;points=[];" parent="q-G7PGfzLxb9l5Q9Doxs-31" vertex="1" connectable="0">
          <mxGeometry x="-0.0074" relative="1" as="geometry">
            <mxPoint as="offset" />
          </mxGeometry>
        </mxCell>
        <mxCell id="q-G7PGfzLxb9l5Q9Doxs-34" value="" style="endArrow=classic;html=1;rounded=0;exitX=0.012;exitY=0.666;exitDx=0;exitDy=0;exitPerimeter=0;entryX=1.012;entryY=0.285;entryDx=0;entryDy=0;entryPerimeter=0;" parent="1" edge="1">
          <mxGeometry width="50" height="50" relative="1" as="geometry">
            <mxPoint x="320.67" y="569.9400000000002" as="sourcePoint" />
            <mxPoint x="120.67000000000002" y="569.82" as="targetPoint" />
          </mxGeometry>
        </mxCell>
        <mxCell id="q-G7PGfzLxb9l5Q9Doxs-35" value="PlannerReady" style="edgeLabel;html=1;align=center;verticalAlign=middle;resizable=0;points=[];" parent="q-G7PGfzLxb9l5Q9Doxs-34" vertex="1" connectable="0">
          <mxGeometry x="0.1121" y="-1" relative="1" as="geometry">
            <mxPoint x="11" as="offset" />
          </mxGeometry>
        </mxCell>
        <mxCell id="q-G7PGfzLxb9l5Q9Doxs-36" value="" style="rounded=1;whiteSpace=wrap;html=1;" parent="1" vertex="1">
          <mxGeometry x="346" y="205" width="30" height="30" as="geometry" />
        </mxCell>
        <mxCell id="q-G7PGfzLxb9l5Q9Doxs-86" style="edgeStyle=orthogonalEdgeStyle;rounded=0;orthogonalLoop=1;jettySize=auto;html=1;exitX=0;exitY=0.75;exitDx=0;exitDy=0;" parent="1" edge="1">
          <mxGeometry relative="1" as="geometry">
            <mxPoint x="560" y="311" as="sourcePoint" />
            <mxPoint x="374" y="311" as="targetPoint" />
          </mxGeometry>
        </mxCell>
        <mxCell id="q-G7PGfzLxb9l5Q9Doxs-263" value="&lt;div&gt;image&lt;/div&gt;&lt;div&gt;&lt;br&gt;&lt;/div&gt;" style="edgeLabel;html=1;align=center;verticalAlign=middle;resizable=0;points=[];" parent="q-G7PGfzLxb9l5Q9Doxs-86" vertex="1" connectable="0">
          <mxGeometry x="0.0815" y="2" relative="1" as="geometry">
            <mxPoint as="offset" />
          </mxGeometry>
        </mxCell>
        <mxCell id="q-G7PGfzLxb9l5Q9Doxs-38" value="" style="endArrow=classic;html=1;rounded=0;exitX=1;exitY=0.5;exitDx=0;exitDy=0;entryX=0;entryY=0.375;entryDx=0;entryDy=0;entryPerimeter=0;" parent="1" edge="1">
          <mxGeometry width="50" height="50" relative="1" as="geometry">
            <mxPoint x="376" y="220" as="sourcePoint" />
            <mxPoint x="560" y="220" as="targetPoint" />
          </mxGeometry>
        </mxCell>
        <mxCell id="q-G7PGfzLxb9l5Q9Doxs-39" value="init()" style="edgeLabel;html=1;align=center;verticalAlign=middle;resizable=0;points=[];" parent="q-G7PGfzLxb9l5Q9Doxs-38" vertex="1" connectable="0">
          <mxGeometry x="-0.0725" y="1" relative="1" as="geometry">
            <mxPoint as="offset" />
          </mxGeometry>
        </mxCell>
        <mxCell id="q-G7PGfzLxb9l5Q9Doxs-121" value="Particle" style="rounded=0;whiteSpace=wrap;html=1;" parent="1" vertex="1">
          <mxGeometry x="1240" y="40" width="120" height="60" as="geometry" />
        </mxCell>
        <mxCell id="q-G7PGfzLxb9l5Q9Doxs-123" value="Localizer" style="rounded=0;whiteSpace=wrap;html=1;" parent="1" vertex="1">
          <mxGeometry x="1000.67" y="40" width="120" height="60" as="geometry" />
        </mxCell>
        <mxCell id="q-G7PGfzLxb9l5Q9Doxs-124" value="" style="rounded=1;whiteSpace=wrap;html=1;" parent="1" vertex="1">
          <mxGeometry x="1042.03" y="1230" width="40" height="160" as="geometry" />
        </mxCell>
        <mxCell id="q-G7PGfzLxb9l5Q9Doxs-130" value="Drone" style="rounded=0;whiteSpace=wrap;html=1;" parent="1" vertex="1">
          <mxGeometry x="760.67" y="40" width="120" height="60" as="geometry" />
        </mxCell>
        <mxCell id="q-G7PGfzLxb9l5Q9Doxs-137" value="" style="rounded=1;whiteSpace=wrap;html=1;" parent="1" vertex="1">
          <mxGeometry x="802.03" y="1230" width="40" height="290" as="geometry" />
        </mxCell>
        <mxCell id="q-G7PGfzLxb9l5Q9Doxs-138" style="edgeStyle=orthogonalEdgeStyle;rounded=0;orthogonalLoop=1;jettySize=auto;html=1;exitX=1;exitY=0.25;exitDx=0;exitDy=0;entryX=-0.022;entryY=0.066;entryDx=0;entryDy=0;entryPerimeter=0;" parent="1" edge="1">
          <mxGeometry relative="1" as="geometry">
            <mxPoint x="842.0299999999999" y="1262.9399999999998" as="sourcePoint" />
            <mxPoint x="1041.1499999999999" y="1262.74" as="targetPoint" />
          </mxGeometry>
        </mxCell>
        <mxCell id="q-G7PGfzLxb9l5Q9Doxs-139" value="resample_particles(image)" style="edgeLabel;html=1;align=center;verticalAlign=middle;resizable=0;points=[];" parent="q-G7PGfzLxb9l5Q9Doxs-138" vertex="1" connectable="0">
          <mxGeometry x="-0.0834" relative="1" as="geometry">
            <mxPoint x="1" as="offset" />
          </mxGeometry>
        </mxCell>
        <mxCell id="q-G7PGfzLxb9l5Q9Doxs-140" value="" style="rounded=1;whiteSpace=wrap;html=1;" parent="1" vertex="1">
          <mxGeometry x="822.0299999999999" y="1248" width="30" height="30" as="geometry" />
        </mxCell>
        <mxCell id="q-G7PGfzLxb9l5Q9Doxs-230" style="edgeStyle=orthogonalEdgeStyle;rounded=0;orthogonalLoop=1;jettySize=auto;html=1;exitX=1;exitY=0.5;exitDx=0;exitDy=0;entryX=0;entryY=0.5;entryDx=0;entryDy=0;" parent="1" edge="1">
          <mxGeometry relative="1" as="geometry">
            <mxPoint x="1096.0299999999997" y="1342.5" as="sourcePoint" />
            <mxPoint x="1281.0299999999997" y="1342.5" as="targetPoint" />
          </mxGeometry>
        </mxCell>
        <mxCell id="q-G7PGfzLxb9l5Q9Doxs-231" value="move(x, y, weight)" style="edgeLabel;html=1;align=center;verticalAlign=middle;resizable=0;points=[];" parent="q-G7PGfzLxb9l5Q9Doxs-230" vertex="1" connectable="0">
          <mxGeometry x="-0.0162" y="3" relative="1" as="geometry">
            <mxPoint as="offset" />
          </mxGeometry>
        </mxCell>
        <mxCell id="q-G7PGfzLxb9l5Q9Doxs-141" value="" style="rounded=1;whiteSpace=wrap;html=1;" parent="1" vertex="1">
          <mxGeometry x="1066.03" y="1292.5" width="30" height="67.5" as="geometry" />
        </mxCell>
        <mxCell id="q-G7PGfzLxb9l5Q9Doxs-142" value="" style="endArrow=classic;html=1;rounded=0;exitX=0.992;exitY=0.875;exitDx=0;exitDy=0;exitPerimeter=0;entryX=1.033;entryY=0.198;entryDx=0;entryDy=0;entryPerimeter=0;" parent="1" edge="1">
          <mxGeometry width="50" height="50" relative="1" as="geometry">
            <mxPoint x="1095.7899999999997" y="1260" as="sourcePoint" />
            <mxPoint x="1097.02" y="1312.3000000000002" as="targetPoint" />
            <Array as="points">
              <mxPoint x="1142.03" y="1260.5" />
              <mxPoint x="1142.03" y="1312.5" />
            </Array>
          </mxGeometry>
        </mxCell>
        <mxCell id="q-G7PGfzLxb9l5Q9Doxs-143" value="updateParticles()" style="edgeLabel;html=1;align=center;verticalAlign=middle;resizable=0;points=[];" parent="q-G7PGfzLxb9l5Q9Doxs-142" vertex="1" connectable="0">
          <mxGeometry x="0.0043" relative="1" as="geometry">
            <mxPoint as="offset" />
          </mxGeometry>
        </mxCell>
        <mxCell id="q-G7PGfzLxb9l5Q9Doxs-150" value="Camera" style="rounded=0;whiteSpace=wrap;html=1;" parent="1" vertex="1">
          <mxGeometry x="520" y="40" width="120" height="60" as="geometry" />
        </mxCell>
        <mxCell id="q-G7PGfzLxb9l5Q9Doxs-162" value="" style="rounded=1;whiteSpace=wrap;html=1;" parent="1" vertex="1">
          <mxGeometry x="560" y="160" width="40" height="170" as="geometry" />
        </mxCell>
        <mxCell id="q-G7PGfzLxb9l5Q9Doxs-163" value="" style="rounded=1;whiteSpace=wrap;html=1;" parent="1" vertex="1">
          <mxGeometry x="801.67" y="420" width="40" height="200" as="geometry" />
        </mxCell>
        <mxCell id="q-G7PGfzLxb9l5Q9Doxs-176" style="edgeStyle=orthogonalEdgeStyle;rounded=0;orthogonalLoop=1;jettySize=auto;html=1;exitX=1;exitY=0.5;exitDx=0;exitDy=0;entryX=1.03;entryY=0.651;entryDx=0;entryDy=0;entryPerimeter=0;" parent="1" source="q-G7PGfzLxb9l5Q9Doxs-174" target="q-G7PGfzLxb9l5Q9Doxs-162" edge="1">
          <mxGeometry relative="1" as="geometry">
            <Array as="points">
              <mxPoint x="640" y="220" />
              <mxPoint x="640" y="270" />
              <mxPoint x="601" y="270" />
            </Array>
            <mxPoint x="610" y="270" as="targetPoint" />
          </mxGeometry>
        </mxCell>
        <mxCell id="q-G7PGfzLxb9l5Q9Doxs-177" value="capture()" style="edgeLabel;html=1;align=center;verticalAlign=middle;resizable=0;points=[];" parent="q-G7PGfzLxb9l5Q9Doxs-176" vertex="1" connectable="0">
          <mxGeometry x="-0.17" relative="1" as="geometry">
            <mxPoint x="10" y="-1" as="offset" />
          </mxGeometry>
        </mxCell>
        <mxCell id="q-G7PGfzLxb9l5Q9Doxs-174" value="" style="rounded=1;whiteSpace=wrap;html=1;" parent="1" vertex="1">
          <mxGeometry x="590" y="205" width="30" height="30" as="geometry" />
        </mxCell>
        <mxCell id="q-G7PGfzLxb9l5Q9Doxs-178" value="" style="rounded=1;whiteSpace=wrap;html=1;" parent="1" vertex="1">
          <mxGeometry x="343.56" y="265" width="30" height="215" as="geometry" />
        </mxCell>
        <mxCell id="q-G7PGfzLxb9l5Q9Doxs-182" value="" style="rounded=1;whiteSpace=wrap;html=1;" parent="1" vertex="1">
          <mxGeometry x="1041.67" y="421" width="40" height="199" as="geometry" />
        </mxCell>
        <mxCell id="q-G7PGfzLxb9l5Q9Doxs-183" value="" style="rounded=1;whiteSpace=wrap;html=1;" parent="1" vertex="1">
          <mxGeometry x="828.23" y="432" width="30" height="30" as="geometry" />
        </mxCell>
        <mxCell id="q-G7PGfzLxb9l5Q9Doxs-184" value="" style="endArrow=classic;html=1;rounded=0;exitX=1;exitY=0.75;exitDx=0;exitDy=0;" parent="1" edge="1">
          <mxGeometry width="50" height="50" relative="1" as="geometry">
            <mxPoint x="858.2299999999999" y="449" as="sourcePoint" />
            <mxPoint x="1040" y="449" as="targetPoint" />
          </mxGeometry>
        </mxCell>
        <mxCell id="q-G7PGfzLxb9l5Q9Doxs-186" value="" style="endArrow=classic;html=1;rounded=0;exitX=0.009;exitY=0.802;exitDx=0;exitDy=0;entryX=1.008;entryY=0.858;entryDx=0;entryDy=0;entryPerimeter=0;exitPerimeter=0;" parent="1" edge="1">
          <mxGeometry width="50" height="50" relative="1" as="geometry">
            <mxPoint x="1041.6700000000003" y="569.9799999999999" as="sourcePoint" />
            <mxPoint x="841.63" y="569.82" as="targetPoint" />
          </mxGeometry>
        </mxCell>
        <mxCell id="q-G7PGfzLxb9l5Q9Doxs-275" value="inital_x, initial_y" style="edgeLabel;html=1;align=center;verticalAlign=middle;resizable=0;points=[];" parent="q-G7PGfzLxb9l5Q9Doxs-186" vertex="1" connectable="0">
          <mxGeometry x="0.08" y="-3" relative="1" as="geometry">
            <mxPoint as="offset" />
          </mxGeometry>
        </mxCell>
        <mxCell id="q-G7PGfzLxb9l5Q9Doxs-199" value="init(display, color)" style="edgeLabel;html=1;align=center;verticalAlign=middle;resizable=0;points=[];" parent="1" vertex="1" connectable="0">
          <mxGeometry x="940.6725933288841" y="446.99554290925585" as="geometry">
            <mxPoint x="-4" y="-2" as="offset" />
          </mxGeometry>
        </mxCell>
        <mxCell id="q-G7PGfzLxb9l5Q9Doxs-201" value="" style="endArrow=classic;html=1;rounded=0;entryX=1;entryY=0.25;entryDx=0;entryDy=0;" parent="1" edge="1">
          <mxGeometry width="50" height="50" relative="1" as="geometry">
            <mxPoint x="1096" y="474" as="sourcePoint" />
            <mxPoint x="1095.67" y="532.5" as="targetPoint" />
            <Array as="points">
              <mxPoint x="1136" y="474" />
              <mxPoint x="1136" y="533" />
            </Array>
          </mxGeometry>
        </mxCell>
        <mxCell id="q-G7PGfzLxb9l5Q9Doxs-202" value="updateParticles()" style="edgeLabel;html=1;align=center;verticalAlign=middle;resizable=0;points=[];" parent="q-G7PGfzLxb9l5Q9Doxs-201" vertex="1" connectable="0">
          <mxGeometry x="-0.0725" y="1" relative="1" as="geometry">
            <mxPoint x="19" y="5" as="offset" />
          </mxGeometry>
        </mxCell>
        <mxCell id="q-G7PGfzLxb9l5Q9Doxs-203" value="" style="rounded=1;whiteSpace=wrap;html=1;" parent="1" vertex="1">
          <mxGeometry x="1280.67" y="432" width="40" height="40" as="geometry" />
        </mxCell>
        <mxCell id="q-G7PGfzLxb9l5Q9Doxs-204" value="" style="rounded=1;whiteSpace=wrap;html=1;" parent="1" vertex="1">
          <mxGeometry x="1065.67" y="432" width="30" height="48" as="geometry" />
        </mxCell>
        <mxCell id="q-G7PGfzLxb9l5Q9Doxs-207" value="" style="endArrow=classic;html=1;rounded=0;exitX=1.061;exitY=0.913;exitDx=0;exitDy=0;exitPerimeter=0;entryX=-0.051;entryY=0.103;entryDx=0;entryDy=0;entryPerimeter=0;" parent="1" edge="1">
          <mxGeometry width="50" height="50" relative="1" as="geometry">
            <mxPoint x="119.99999999999994" y="754.2600000000001" as="sourcePoint" />
            <mxPoint x="315.52000000000004" y="755.74" as="targetPoint" />
          </mxGeometry>
        </mxCell>
        <mxCell id="q-G7PGfzLxb9l5Q9Doxs-222" value="System Ready" style="edgeLabel;html=1;align=center;verticalAlign=middle;resizable=0;points=[];" parent="q-G7PGfzLxb9l5Q9Doxs-207" vertex="1" connectable="0">
          <mxGeometry x="0.0404" y="1" relative="1" as="geometry">
            <mxPoint as="offset" />
          </mxGeometry>
        </mxCell>
        <mxCell id="q-G7PGfzLxb9l5Q9Doxs-208" value="" style="rounded=1;whiteSpace=wrap;html=1;" parent="1" vertex="1">
          <mxGeometry x="320.67" y="720" width="40" height="800" as="geometry" />
        </mxCell>
        <mxCell id="q-G7PGfzLxb9l5Q9Doxs-209" style="edgeStyle=orthogonalEdgeStyle;rounded=0;orthogonalLoop=1;jettySize=auto;html=1;exitX=1;exitY=0.5;exitDx=0;exitDy=0;entryX=1;entryY=0.25;entryDx=0;entryDy=0;" parent="1" edge="1">
          <mxGeometry relative="1" as="geometry">
            <mxPoint x="374.23" y="755" as="sourcePoint" />
            <mxPoint x="374.23" y="840" as="targetPoint" />
            <Array as="points">
              <mxPoint x="374.23" y="756" />
              <mxPoint x="398.23" y="756" />
              <mxPoint x="398.23" y="840" />
            </Array>
          </mxGeometry>
        </mxCell>
        <mxCell id="q-G7PGfzLxb9l5Q9Doxs-210" value="nextState()" style="edgeLabel;html=1;align=center;verticalAlign=middle;resizable=0;points=[];" parent="q-G7PGfzLxb9l5Q9Doxs-209" vertex="1" connectable="0">
          <mxGeometry x="-0.0902" y="1" relative="1" as="geometry">
            <mxPoint as="offset" />
          </mxGeometry>
        </mxCell>
        <mxCell id="q-G7PGfzLxb9l5Q9Doxs-211" value="" style="rounded=1;whiteSpace=wrap;html=1;" parent="1" vertex="1">
          <mxGeometry x="344.23" y="740" width="30" height="30" as="geometry" />
        </mxCell>
        <mxCell id="q-G7PGfzLxb9l5Q9Doxs-212" style="edgeStyle=orthogonalEdgeStyle;rounded=0;orthogonalLoop=1;jettySize=auto;html=1;exitX=1;exitY=0.75;exitDx=0;exitDy=0;entryX=1;entryY=0.25;entryDx=0;entryDy=0;" parent="1" edge="1">
          <mxGeometry relative="1" as="geometry">
            <mxPoint x="374.23" y="940" as="targetPoint" />
            <mxPoint x="374.23" y="880" as="sourcePoint" />
            <Array as="points">
              <mxPoint x="398.23" y="880" />
              <mxPoint x="398.23" y="940" />
            </Array>
          </mxGeometry>
        </mxCell>
        <mxCell id="q-G7PGfzLxb9l5Q9Doxs-213" value="" style="rounded=1;whiteSpace=wrap;html=1;" parent="1" vertex="1">
          <mxGeometry x="344.23" y="820" width="30" height="80" as="geometry" />
        </mxCell>
        <mxCell id="q-G7PGfzLxb9l5Q9Doxs-214" style="edgeStyle=orthogonalEdgeStyle;rounded=0;orthogonalLoop=1;jettySize=auto;html=1;exitX=1;exitY=0.75;exitDx=0;exitDy=0;" parent="1" source="q-G7PGfzLxb9l5Q9Doxs-215" edge="1">
          <mxGeometry relative="1" as="geometry">
            <Array as="points">
              <mxPoint x="400.67" y="980" />
              <mxPoint x="400.67" y="1053" />
            </Array>
            <mxPoint x="374" y="1053" as="targetPoint" />
          </mxGeometry>
        </mxCell>
        <mxCell id="q-G7PGfzLxb9l5Q9Doxs-215" value="" style="rounded=1;whiteSpace=wrap;html=1;" parent="1" vertex="1">
          <mxGeometry x="344.23" y="920" width="30" height="80" as="geometry" />
        </mxCell>
        <mxCell id="q-G7PGfzLxb9l5Q9Doxs-216" value="runState()" style="edgeLabel;html=1;align=center;verticalAlign=middle;resizable=0;points=[];" parent="1" vertex="1" connectable="0">
          <mxGeometry x="408.23" y="909.9982352941175" as="geometry" />
        </mxCell>
        <mxCell id="q-G7PGfzLxb9l5Q9Doxs-217" style="edgeStyle=orthogonalEdgeStyle;rounded=0;orthogonalLoop=1;jettySize=auto;html=1;exitX=1;exitY=0.75;exitDx=0;exitDy=0;entryX=0.021;entryY=0.369;entryDx=0;entryDy=0;entryPerimeter=0;" parent="1" edge="1">
          <mxGeometry relative="1" as="geometry">
            <mxPoint x="374.23" y="1089.73" as="sourcePoint" />
            <mxPoint x="560.0699999999999" y="1089.77" as="targetPoint" />
          </mxGeometry>
        </mxCell>
        <mxCell id="q-G7PGfzLxb9l5Q9Doxs-218" value="capture()" style="edgeLabel;html=1;align=center;verticalAlign=middle;resizable=0;points=[];" parent="q-G7PGfzLxb9l5Q9Doxs-217" vertex="1" connectable="0">
          <mxGeometry x="-0.1551" y="1" relative="1" as="geometry">
            <mxPoint as="offset" />
          </mxGeometry>
        </mxCell>
        <mxCell id="q-G7PGfzLxb9l5Q9Doxs-219" value="" style="rounded=1;whiteSpace=wrap;html=1;" parent="1" vertex="1">
          <mxGeometry x="344.23" y="1030" width="30" height="160" as="geometry" />
        </mxCell>
        <mxCell id="q-G7PGfzLxb9l5Q9Doxs-220" value="plan()" style="edgeLabel;html=1;align=center;verticalAlign=middle;resizable=0;points=[];" parent="1" vertex="1" connectable="0">
          <mxGeometry x="404.23" y="1014.9982352941175" as="geometry" />
        </mxCell>
        <mxCell id="q-G7PGfzLxb9l5Q9Doxs-221" value="" style="endArrow=classic;html=1;rounded=0;exitX=0.009;exitY=0.802;exitDx=0;exitDy=0;entryX=0.954;entryY=0.904;entryDx=0;entryDy=0;entryPerimeter=0;exitPerimeter=0;" parent="1" edge="1">
          <mxGeometry width="50" height="50" relative="1" as="geometry">
            <mxPoint x="802.8399999999999" y="571.12" as="sourcePoint" />
            <mxPoint x="359.99999999999943" y="568.8799999999998" as="targetPoint" />
          </mxGeometry>
        </mxCell>
        <mxCell id="q-G7PGfzLxb9l5Q9Doxs-223" value="" style="rounded=1;whiteSpace=wrap;html=1;" parent="1" vertex="1">
          <mxGeometry x="560.67" y="1060" width="40" height="120" as="geometry" />
        </mxCell>
        <mxCell id="q-G7PGfzLxb9l5Q9Doxs-224" style="edgeStyle=orthogonalEdgeStyle;rounded=0;orthogonalLoop=1;jettySize=auto;html=1;exitX=0;exitY=0.75;exitDx=0;exitDy=0;entryX=0.983;entryY=0.544;entryDx=0;entryDy=0;entryPerimeter=0;" parent="1" edge="1">
          <mxGeometry relative="1" as="geometry">
            <mxPoint x="560.67" y="1150" as="sourcePoint" />
            <mxPoint x="373.7200000000001" y="1149.68" as="targetPoint" />
            <Array as="points">
              <mxPoint x="373.67" y="1150" />
            </Array>
          </mxGeometry>
        </mxCell>
        <mxCell id="q-G7PGfzLxb9l5Q9Doxs-284" value="image" style="edgeLabel;html=1;align=center;verticalAlign=middle;resizable=0;points=[];" parent="q-G7PGfzLxb9l5Q9Doxs-224" vertex="1" connectable="0">
          <mxGeometry x="0.1859" y="-2" relative="1" as="geometry">
            <mxPoint as="offset" />
          </mxGeometry>
        </mxCell>
        <mxCell id="q-G7PGfzLxb9l5Q9Doxs-226" value="" style="endArrow=classic;html=1;rounded=0;exitX=1.004;exitY=0.789;exitDx=0;exitDy=0;exitPerimeter=0;entryX=-0.023;entryY=0.137;entryDx=0;entryDy=0;entryPerimeter=0;" parent="1" source="q-G7PGfzLxb9l5Q9Doxs-293" edge="1">
          <mxGeometry width="50" height="50" relative="1" as="geometry">
            <mxPoint x="374.58" y="1262.5" as="sourcePoint" />
            <mxPoint x="801.6700000000001" y="1265.1800000000003" as="targetPoint" />
          </mxGeometry>
        </mxCell>
        <mxCell id="q-G7PGfzLxb9l5Q9Doxs-227" value="move(image, path)" style="edgeLabel;html=1;align=center;verticalAlign=middle;resizable=0;points=[];" parent="q-G7PGfzLxb9l5Q9Doxs-226" vertex="1" connectable="0">
          <mxGeometry x="-0.0374" y="-1" relative="1" as="geometry">
            <mxPoint as="offset" />
          </mxGeometry>
        </mxCell>
        <mxCell id="q-G7PGfzLxb9l5Q9Doxs-228" value="" style="rounded=1;whiteSpace=wrap;html=1;" parent="1" vertex="1">
          <mxGeometry x="1066.03" y="1248" width="30" height="30" as="geometry" />
        </mxCell>
        <mxCell id="q-G7PGfzLxb9l5Q9Doxs-229" value="" style="rounded=1;whiteSpace=wrap;html=1;" parent="1" vertex="1">
          <mxGeometry x="1281.03" y="1322.5" width="40" height="40" as="geometry" />
        </mxCell>
        <mxCell id="q-G7PGfzLxb9l5Q9Doxs-236" style="edgeStyle=orthogonalEdgeStyle;rounded=0;orthogonalLoop=1;jettySize=auto;html=1;exitX=1;exitY=0.5;exitDx=0;exitDy=0;" parent="1" edge="1">
          <mxGeometry relative="1" as="geometry">
            <mxPoint x="838.5899999999999" y="1468.4" as="targetPoint" />
            <mxPoint x="846.1499999999999" y="1403.4" as="sourcePoint" />
            <Array as="points">
              <mxPoint x="878.5899999999999" y="1403.4" />
              <mxPoint x="878.5899999999999" y="1468.4" />
            </Array>
          </mxGeometry>
        </mxCell>
        <mxCell id="q-G7PGfzLxb9l5Q9Doxs-237" value="&lt;div&gt;move(current_x, current_y,&amp;nbsp;&lt;/div&gt;&lt;div&gt;target_x, target_y)&lt;/div&gt;" style="edgeLabel;html=1;align=center;verticalAlign=middle;resizable=0;points=[];" parent="q-G7PGfzLxb9l5Q9Doxs-236" vertex="1" connectable="0">
          <mxGeometry x="-0.1338" relative="1" as="geometry">
            <mxPoint x="41" y="10" as="offset" />
          </mxGeometry>
        </mxCell>
        <mxCell id="q-G7PGfzLxb9l5Q9Doxs-234" value="" style="rounded=1;whiteSpace=wrap;html=1;" parent="1" vertex="1">
          <mxGeometry x="826.1499999999997" y="1388.4" width="30" height="30" as="geometry" />
        </mxCell>
        <mxCell id="q-G7PGfzLxb9l5Q9Doxs-235" value="" style="endArrow=classic;html=1;rounded=0;" parent="1" edge="1">
          <mxGeometry width="50" height="50" relative="1" as="geometry">
            <mxPoint x="1040.67" y="1342.16" as="sourcePoint" />
            <mxPoint x="840.67" y="1342.16" as="targetPoint" />
          </mxGeometry>
        </mxCell>
        <mxCell id="q-G7PGfzLxb9l5Q9Doxs-291" value="&lt;div&gt;current_x, current_y&lt;/div&gt;&lt;div&gt;target_x, target_y&lt;br&gt;&lt;/div&gt;" style="edgeLabel;html=1;align=center;verticalAlign=middle;resizable=0;points=[];" parent="q-G7PGfzLxb9l5Q9Doxs-235" vertex="1" connectable="0">
          <mxGeometry x="0.023" y="-2" relative="1" as="geometry">
            <mxPoint as="offset" />
          </mxGeometry>
        </mxCell>
        <mxCell id="q-G7PGfzLxb9l5Q9Doxs-240" value="" style="endArrow=classic;html=1;rounded=0;" parent="1" edge="1">
          <mxGeometry width="50" height="50" relative="1" as="geometry">
            <mxPoint x="800" y="1470" as="sourcePoint" />
            <mxPoint x="360" y="1470" as="targetPoint" />
          </mxGeometry>
        </mxCell>
        <mxCell id="q-G7PGfzLxb9l5Q9Doxs-242" value="" style="endArrow=classic;html=1;rounded=0;entryX=1.061;entryY=0.965;entryDx=0;entryDy=0;entryPerimeter=0;" parent="1" edge="1">
          <mxGeometry width="50" height="50" relative="1" as="geometry">
            <mxPoint x="317.56" y="1468.4" as="sourcePoint" />
            <mxPoint x="120.00000000000006" y="1468" as="targetPoint" />
          </mxGeometry>
        </mxCell>
        <mxCell id="q-G7PGfzLxb9l5Q9Doxs-243" value="id, x, y" style="edgeLabel;html=1;align=center;verticalAlign=middle;resizable=0;points=[];" parent="q-G7PGfzLxb9l5Q9Doxs-242" vertex="1" connectable="0">
          <mxGeometry x="0.0966" y="-1" relative="1" as="geometry">
            <mxPoint as="offset" />
          </mxGeometry>
        </mxCell>
        <mxCell id="q-G7PGfzLxb9l5Q9Doxs-244" value="Display" style="rounded=0;whiteSpace=wrap;html=1;" parent="1" vertex="1">
          <mxGeometry x="1480" y="40" width="120" height="60" as="geometry" />
        </mxCell>
        <mxCell id="q-G7PGfzLxb9l5Q9Doxs-245" value="" style="endArrow=none;dashed=1;html=1;dashPattern=1 3;strokeWidth=2;rounded=0;exitX=0.5;exitY=1;exitDx=0;exitDy=0;entryX=0.5;entryY=0;entryDx=0;entryDy=0;" parent="1" source="q-G7PGfzLxb9l5Q9Doxs-19" target="q-G7PGfzLxb9l5Q9Doxs-26" edge="1">
          <mxGeometry width="50" height="50" relative="1" as="geometry">
            <mxPoint x="740" y="470" as="sourcePoint" />
            <mxPoint x="790" y="420" as="targetPoint" />
          </mxGeometry>
        </mxCell>
        <mxCell id="q-G7PGfzLxb9l5Q9Doxs-246" value="" style="endArrow=none;dashed=1;html=1;dashPattern=1 3;strokeWidth=2;rounded=0;exitX=0.5;exitY=1;exitDx=0;exitDy=0;entryX=0.5;entryY=0;entryDx=0;entryDy=0;" parent="1" source="q-G7PGfzLxb9l5Q9Doxs-20" target="q-G7PGfzLxb9l5Q9Doxs-30" edge="1">
          <mxGeometry width="50" height="50" relative="1" as="geometry">
            <mxPoint x="210" y="480" as="sourcePoint" />
            <mxPoint x="260" y="430" as="targetPoint" />
          </mxGeometry>
        </mxCell>
        <mxCell id="q-G7PGfzLxb9l5Q9Doxs-247" value="" style="endArrow=none;dashed=1;html=1;dashPattern=1 3;strokeWidth=2;rounded=0;exitX=0.5;exitY=1;exitDx=0;exitDy=0;entryX=0.5;entryY=0;entryDx=0;entryDy=0;" parent="1" source="q-G7PGfzLxb9l5Q9Doxs-30" target="q-G7PGfzLxb9l5Q9Doxs-208" edge="1">
          <mxGeometry width="50" height="50" relative="1" as="geometry">
            <mxPoint x="340.67" y="680" as="sourcePoint" />
            <mxPoint x="490.67" y="740" as="targetPoint" />
          </mxGeometry>
        </mxCell>
        <mxCell id="q-G7PGfzLxb9l5Q9Doxs-248" value="" style="endArrow=none;dashed=1;html=1;dashPattern=1 3;strokeWidth=2;rounded=0;exitX=0.5;exitY=1;exitDx=0;exitDy=0;entryX=0.5;entryY=0;entryDx=0;entryDy=0;" parent="1" source="q-G7PGfzLxb9l5Q9Doxs-150" target="q-G7PGfzLxb9l5Q9Doxs-162" edge="1">
          <mxGeometry width="50" height="50" relative="1" as="geometry">
            <mxPoint x="490" y="190" as="sourcePoint" />
            <mxPoint x="540" y="140" as="targetPoint" />
          </mxGeometry>
        </mxCell>
        <mxCell id="q-G7PGfzLxb9l5Q9Doxs-249" value="" style="endArrow=none;dashed=1;html=1;dashPattern=1 3;strokeWidth=2;rounded=0;exitX=0.5;exitY=1;exitDx=0;exitDy=0;entryX=0.5;entryY=0;entryDx=0;entryDy=0;" parent="1" source="q-G7PGfzLxb9l5Q9Doxs-130" target="q-G7PGfzLxb9l5Q9Doxs-163" edge="1">
          <mxGeometry width="50" height="50" relative="1" as="geometry">
            <mxPoint x="800" y="190" as="sourcePoint" />
            <mxPoint x="850" y="140" as="targetPoint" />
          </mxGeometry>
        </mxCell>
        <mxCell id="q-G7PGfzLxb9l5Q9Doxs-250" value="" style="endArrow=none;dashed=1;html=1;dashPattern=1 3;strokeWidth=2;rounded=0;exitX=0.5;exitY=1;exitDx=0;exitDy=0;entryX=0.479;entryY=-0.016;entryDx=0;entryDy=0;entryPerimeter=0;" parent="1" source="q-G7PGfzLxb9l5Q9Doxs-123" target="q-G7PGfzLxb9l5Q9Doxs-182" edge="1">
          <mxGeometry width="50" height="50" relative="1" as="geometry">
            <mxPoint x="1070" y="310" as="sourcePoint" />
            <mxPoint x="1120" y="260" as="targetPoint" />
          </mxGeometry>
        </mxCell>
        <mxCell id="q-G7PGfzLxb9l5Q9Doxs-252" value="" style="endArrow=none;dashed=1;html=1;dashPattern=1 3;strokeWidth=2;rounded=0;entryX=0.5;entryY=1;entryDx=0;entryDy=0;exitX=0.5;exitY=0;exitDx=0;exitDy=0;" parent="1" source="q-G7PGfzLxb9l5Q9Doxs-203" target="q-G7PGfzLxb9l5Q9Doxs-121" edge="1">
          <mxGeometry width="50" height="50" relative="1" as="geometry">
            <mxPoint x="1230" y="270" as="sourcePoint" />
            <mxPoint x="1280" y="220" as="targetPoint" />
          </mxGeometry>
        </mxCell>
        <mxCell id="q-G7PGfzLxb9l5Q9Doxs-253" value="" style="endArrow=none;dashed=1;html=1;dashPattern=1 3;strokeWidth=2;rounded=0;entryX=0.5;entryY=1;entryDx=0;entryDy=0;exitX=0.5;exitY=0;exitDx=0;exitDy=0;" parent="1" source="q-G7PGfzLxb9l5Q9Doxs-137" target="q-G7PGfzLxb9l5Q9Doxs-163" edge="1">
          <mxGeometry width="50" height="50" relative="1" as="geometry">
            <mxPoint x="630.67" y="880" as="sourcePoint" />
            <mxPoint x="680.67" y="830" as="targetPoint" />
          </mxGeometry>
        </mxCell>
        <mxCell id="q-G7PGfzLxb9l5Q9Doxs-254" value="" style="endArrow=none;dashed=1;html=1;dashPattern=1 3;strokeWidth=2;rounded=0;entryX=0.5;entryY=1;entryDx=0;entryDy=0;exitX=0.5;exitY=0;exitDx=0;exitDy=0;" parent="1" source="q-G7PGfzLxb9l5Q9Doxs-124" target="q-G7PGfzLxb9l5Q9Doxs-182" edge="1">
          <mxGeometry width="50" height="50" relative="1" as="geometry">
            <mxPoint x="1060.7800000000002" y="1200" as="sourcePoint" />
            <mxPoint x="1060.7800000000002" y="680" as="targetPoint" />
          </mxGeometry>
        </mxCell>
        <mxCell id="q-G7PGfzLxb9l5Q9Doxs-258" style="edgeStyle=orthogonalEdgeStyle;rounded=0;orthogonalLoop=1;jettySize=auto;html=1;entryX=-0.026;entryY=0.05;entryDx=0;entryDy=0;entryPerimeter=0;" parent="1" edge="1">
          <mxGeometry relative="1" as="geometry">
            <mxPoint x="373.55999999999995" y="354.5" as="sourcePoint" />
            <mxPoint x="1518.96" y="355.9999999999999" as="targetPoint" />
            <Array as="points">
              <mxPoint x="947" y="355" />
              <mxPoint x="1519" y="355" />
            </Array>
          </mxGeometry>
        </mxCell>
        <mxCell id="q-G7PGfzLxb9l5Q9Doxs-262" value="init(image)" style="edgeLabel;html=1;align=center;verticalAlign=middle;resizable=0;points=[];" parent="q-G7PGfzLxb9l5Q9Doxs-258" vertex="1" connectable="0">
          <mxGeometry x="-0.7814" y="1" relative="1" as="geometry">
            <mxPoint as="offset" />
          </mxGeometry>
        </mxCell>
        <mxCell id="q-G7PGfzLxb9l5Q9Doxs-256" value="" style="rounded=1;whiteSpace=wrap;html=1;" parent="1" vertex="1">
          <mxGeometry x="1520" y="280" width="40" height="1080" as="geometry" />
        </mxCell>
        <mxCell id="q-G7PGfzLxb9l5Q9Doxs-270" style="edgeStyle=orthogonalEdgeStyle;rounded=0;orthogonalLoop=1;jettySize=auto;html=1;exitX=1;exitY=0.75;exitDx=0;exitDy=0;" parent="1" edge="1">
          <mxGeometry relative="1" as="geometry">
            <mxPoint x="799.9999999999998" y="449.9955172413793" as="targetPoint" />
            <mxPoint x="376" y="450.03" as="sourcePoint" />
          </mxGeometry>
        </mxCell>
        <mxCell id="q-G7PGfzLxb9l5Q9Doxs-271" value="init(display, sphero)" style="edgeLabel;html=1;align=center;verticalAlign=middle;resizable=0;points=[];" parent="q-G7PGfzLxb9l5Q9Doxs-270" vertex="1" connectable="0">
          <mxGeometry x="-0.682" y="2" relative="1" as="geometry">
            <mxPoint x="16" as="offset" />
          </mxGeometry>
        </mxCell>
        <mxCell id="q-G7PGfzLxb9l5Q9Doxs-272" value="" style="rounded=1;whiteSpace=wrap;html=1;" parent="1" vertex="1">
          <mxGeometry x="1065.67" y="515" width="30" height="75" as="geometry" />
        </mxCell>
        <mxCell id="q-G7PGfzLxb9l5Q9Doxs-273" style="edgeStyle=orthogonalEdgeStyle;rounded=0;orthogonalLoop=1;jettySize=auto;html=1;exitX=1;exitY=0.75;exitDx=0;exitDy=0;entryX=-0.061;entryY=0.297;entryDx=0;entryDy=0;entryPerimeter=0;" parent="1" edge="1">
          <mxGeometry relative="1" as="geometry">
            <mxPoint x="1095.67" y="450.55999999999983" as="sourcePoint" />
            <mxPoint x="1278.23" y="451.5099999999999" as="targetPoint" />
          </mxGeometry>
        </mxCell>
        <mxCell id="q-G7PGfzLxb9l5Q9Doxs-274" value="init(display, color)" style="edgeLabel;html=1;align=center;verticalAlign=middle;resizable=0;points=[];" parent="q-G7PGfzLxb9l5Q9Doxs-273" vertex="1" connectable="0">
          <mxGeometry x="-0.273" y="1" relative="1" as="geometry">
            <mxPoint x="18" y="2" as="offset" />
          </mxGeometry>
        </mxCell>
        <mxCell id="q-G7PGfzLxb9l5Q9Doxs-276" value="" style="endArrow=classic;html=1;rounded=0;entryX=0.009;entryY=0.793;entryDx=0;entryDy=0;entryPerimeter=0;exitX=1;exitY=0.5;exitDx=0;exitDy=0;" parent="1" edge="1">
          <mxGeometry width="50" height="50" relative="1" as="geometry">
            <mxPoint x="1320.67" y="570.47" as="sourcePoint" />
            <mxPoint x="1520.3600000000001" y="569.533" as="targetPoint" />
          </mxGeometry>
        </mxCell>
        <mxCell id="q-G7PGfzLxb9l5Q9Doxs-277" value="draw_particle()" style="edgeLabel;html=1;align=center;verticalAlign=middle;resizable=0;points=[];" parent="q-G7PGfzLxb9l5Q9Doxs-276" vertex="1" connectable="0">
          <mxGeometry x="-0.3026" y="1" relative="1" as="geometry">
            <mxPoint x="30" as="offset" />
          </mxGeometry>
        </mxCell>
        <mxCell id="q-G7PGfzLxb9l5Q9Doxs-280" value="" style="endArrow=none;dashed=1;html=1;dashPattern=1 3;strokeWidth=2;rounded=0;entryX=0.5;entryY=1;entryDx=0;entryDy=0;exitX=0.5;exitY=0;exitDx=0;exitDy=0;" parent="1" source="TCmbZzczbu64n9QQY72r-4" target="q-G7PGfzLxb9l5Q9Doxs-203" edge="1">
          <mxGeometry width="50" height="50" relative="1" as="geometry">
            <mxPoint x="1020" y="1080" as="sourcePoint" />
            <mxPoint x="1070" y="1030" as="targetPoint" />
          </mxGeometry>
        </mxCell>
        <mxCell id="q-G7PGfzLxb9l5Q9Doxs-281" value="" style="endArrow=none;dashed=1;html=1;dashPattern=1 3;strokeWidth=2;rounded=0;entryX=0.5;entryY=1;entryDx=0;entryDy=0;exitX=0.5;exitY=0;exitDx=0;exitDy=0;" parent="1" source="q-G7PGfzLxb9l5Q9Doxs-223" target="q-G7PGfzLxb9l5Q9Doxs-162" edge="1">
          <mxGeometry width="50" height="50" relative="1" as="geometry">
            <mxPoint x="760" y="610" as="sourcePoint" />
            <mxPoint x="810" y="560" as="targetPoint" />
          </mxGeometry>
        </mxCell>
        <mxCell id="q-G7PGfzLxb9l5Q9Doxs-285" style="edgeStyle=orthogonalEdgeStyle;rounded=0;orthogonalLoop=1;jettySize=auto;html=1;exitX=1;exitY=0.25;exitDx=0;exitDy=0;entryX=0.008;entryY=0.781;entryDx=0;entryDy=0;entryPerimeter=0;" parent="1" edge="1">
          <mxGeometry relative="1" as="geometry">
            <mxPoint x="1520.3200000000002" y="1107.86" as="targetPoint" />
            <mxPoint x="620" y="1107.5" as="sourcePoint" />
          </mxGeometry>
        </mxCell>
        <mxCell id="q-G7PGfzLxb9l5Q9Doxs-286" value="update(image)" style="edgeLabel;html=1;align=center;verticalAlign=middle;resizable=0;points=[];" parent="q-G7PGfzLxb9l5Q9Doxs-285" vertex="1" connectable="0">
          <mxGeometry x="-0.8869" relative="1" as="geometry">
            <mxPoint y="-3" as="offset" />
          </mxGeometry>
        </mxCell>
        <mxCell id="q-G7PGfzLxb9l5Q9Doxs-282" value="" style="rounded=1;whiteSpace=wrap;html=1;" parent="1" vertex="1">
          <mxGeometry x="590" y="1090" width="30" height="30" as="geometry" />
        </mxCell>
        <mxCell id="q-G7PGfzLxb9l5Q9Doxs-288" style="edgeStyle=orthogonalEdgeStyle;rounded=0;orthogonalLoop=1;jettySize=auto;html=1;exitX=1;exitY=0.5;exitDx=0;exitDy=0;entryX=-0.009;entryY=0.89;entryDx=0;entryDy=0;entryPerimeter=0;" parent="1" edge="1">
          <mxGeometry relative="1" as="geometry">
            <mxPoint x="1321.0300000000004" y="1342.5" as="sourcePoint" />
            <mxPoint x="1520.0000000000002" y="1342.4" as="targetPoint" />
            <Array as="points" />
          </mxGeometry>
        </mxCell>
        <mxCell id="q-G7PGfzLxb9l5Q9Doxs-292" value="" style="endArrow=none;dashed=1;html=1;dashPattern=1 3;strokeWidth=2;rounded=0;entryX=0.5;entryY=1;entryDx=0;entryDy=0;exitX=0.5;exitY=0;exitDx=0;exitDy=0;" parent="1" source="q-G7PGfzLxb9l5Q9Doxs-256" target="q-G7PGfzLxb9l5Q9Doxs-244" edge="1">
          <mxGeometry width="50" height="50" relative="1" as="geometry">
            <mxPoint x="1050" y="230" as="sourcePoint" />
            <mxPoint x="1100" y="180" as="targetPoint" />
          </mxGeometry>
        </mxCell>
        <mxCell id="q-G7PGfzLxb9l5Q9Doxs-293" value="" style="rounded=1;whiteSpace=wrap;html=1;" parent="1" vertex="1">
          <mxGeometry x="346" y="1212.5" width="30" height="67.5" as="geometry" />
        </mxCell>
        <mxCell id="q-G7PGfzLxb9l5Q9Doxs-294" value="" style="endArrow=classic;html=1;rounded=0;exitX=1.006;exitY=0.905;exitDx=0;exitDy=0;exitPerimeter=0;entryX=1;entryY=0.25;entryDx=0;entryDy=0;" parent="1" source="q-G7PGfzLxb9l5Q9Doxs-219" target="q-G7PGfzLxb9l5Q9Doxs-293" edge="1">
          <mxGeometry width="50" height="50" relative="1" as="geometry">
            <mxPoint x="460" y="1200" as="sourcePoint" />
            <mxPoint x="510" y="1150" as="targetPoint" />
            <Array as="points">
              <mxPoint x="430" y="1175" />
              <mxPoint x="430" y="1230" />
            </Array>
          </mxGeometry>
        </mxCell>
        <mxCell id="q-G7PGfzLxb9l5Q9Doxs-295" value="move_drones(image, paths)" style="edgeLabel;html=1;align=center;verticalAlign=middle;resizable=0;points=[];" parent="q-G7PGfzLxb9l5Q9Doxs-294" vertex="1" connectable="0">
          <mxGeometry x="-0.0154" y="1" relative="1" as="geometry">
            <mxPoint x="19" as="offset" />
          </mxGeometry>
        </mxCell>
        <mxCell id="TCmbZzczbu64n9QQY72r-2" value="id, &lt;br&gt;&lt;div&gt;current_x, current_y&lt;/div&gt;&lt;div&gt;target_x, target_y&lt;br&gt;&lt;/div&gt;" style="edgeLabel;html=1;align=center;verticalAlign=middle;resizable=0;points=[];" vertex="1" connectable="0" parent="1">
          <mxGeometry x="560.6700000000001" y="1470" as="geometry" />
        </mxCell>
        <mxCell id="TCmbZzczbu64n9QQY72r-5" value="" style="endArrow=none;dashed=1;html=1;dashPattern=1 3;strokeWidth=2;rounded=0;entryX=0.5;entryY=1;entryDx=0;entryDy=0;exitX=0.5;exitY=0;exitDx=0;exitDy=0;" edge="1" parent="1" source="q-G7PGfzLxb9l5Q9Doxs-229" target="TCmbZzczbu64n9QQY72r-4">
          <mxGeometry width="50" height="50" relative="1" as="geometry">
            <mxPoint x="1301" y="1323" as="sourcePoint" />
            <mxPoint x="1301" y="472" as="targetPoint" />
          </mxGeometry>
        </mxCell>
        <mxCell id="TCmbZzczbu64n9QQY72r-4" value="" style="rounded=1;whiteSpace=wrap;html=1;" vertex="1" parent="1">
          <mxGeometry x="1281.03" y="550" width="40" height="40" as="geometry" />
        </mxCell>
        <mxCell id="TCmbZzczbu64n9QQY72r-6" value="" style="endArrow=classic;html=1;rounded=0;fontSize=12;startSize=8;endSize=8;curved=1;exitX=1;exitY=0.75;exitDx=0;exitDy=0;" edge="1" parent="1">
          <mxGeometry width="50" height="50" relative="1" as="geometry">
            <mxPoint x="1096.67" y="567.5" as="sourcePoint" />
            <mxPoint x="1280" y="568" as="targetPoint" />
          </mxGeometry>
        </mxCell>
        <mxCell id="TCmbZzczbu64n9QQY72r-9" value="move(x, y, weight)" style="edgeLabel;html=1;align=center;verticalAlign=middle;resizable=0;points=[];" vertex="1" connectable="0" parent="1">
          <mxGeometry x="1180.0042857142855" y="566.0000000000002" as="geometry" />
        </mxCell>
        <mxCell id="TCmbZzczbu64n9QQY72r-12" value="draw_particle()" style="edgeLabel;html=1;align=center;verticalAlign=middle;resizable=0;points=[];" vertex="1" connectable="0" parent="1">
          <mxGeometry x="1419.99835194741" y="1342.5037899038884" as="geometry" />
        </mxCell>
      </root>
    </mxGraphModel>
  </diagram>
</mxfile>
